<?xml version="1.0" standalone="no"?>
<!DOCTYPE svg PUBLIC "-//W3C//DTD SVG 20010904//EN"
 "http://www.w3.org/TR/2001/REC-SVG-20010904/DTD/svg10.dtd">
<svg version="1.0" xmlns="http://www.w3.org/2000/svg"
 width="32.000000pt" height="82.000000pt" viewBox="0 0 32.000000 82.000000"
 preserveAspectRatio="xMidYMid meet">
<metadata>
Created by potrace 1.13, written by Peter Selinger 2001-2015
</metadata>
<g transform="translate(0.000000,82.000000) scale(0.100000,-0.100000)"
fill="#000000" stroke="none">
<path d="M47 773 c2 -27 1 -63 -3 -81 -4 -28 -9 -33 -25 -29 -18 5 -19 -2 -19
-163 0 -160 1 -168 19 -163 26 7 36 -14 12 -26 -14 -8 -21 -8 -24 2 -3 6 -6
-29 -6 -80 -1 -70 2 -91 12 -88 26 9 81 -30 104 -75 12 -25 21 -51 18 -57 -3
-10 15 -13 72 -13 42 0 73 3 70 7 -4 3 -1 16 7 28 16 24 18 80 5 105 -4 9 -30
26 -57 39 -30 14 -55 34 -62 50 -7 14 -17 34 -22 45 -17 32 8 43 36 17 35 -33
83 -22 94 22 6 21 15 32 25 31 15 -2 17 11 16 95 0 53 -3 90 -6 83 -3 -9 -13
-7 -34 9 -24 17 -27 24 -18 35 7 9 11 52 10 120 -1 68 2 111 10 120 10 12 -7
14 -113 14 l-124 0 3 -47z m190 25 c8 -10 10 -146 4 -191 -2 -14 -46 -25 -64
-15 -25 13 -18 38 18 58 25 14 30 23 29 54 -1 20 -4 39 -7 42 -3 3 -25 2 -49
-3 l-43 -9 -5 -69 c-7 -82 -11 -91 -46 -99 -52 -13 -68 40 -18 63 22 10 24 17
24 75 0 74 6 81 75 94 70 14 71 13 82 0z m-7 -288 c70 -36 75 -80 18 -151 -22
-27 -35 -36 -42 -29 -5 5 -27 10 -48 10 -46 0 -113 32 -128 61 -14 25 -5 72
18 92 45 39 125 46 182 17z m-120 -250 c11 -11 20 -26 20 -33 0 -18 60 -73 88
-82 30 -9 47 -42 32 -61 -7 -7 -17 -11 -24 -7 -6 4 -6 1 2 -9 10 -12 10 -18
-2 -27 -21 -18 -54 3 -71 42 -16 38 -61 82 -93 92 -30 9 -47 42 -31 61 9 12
15 12 28 2 14 -11 14 -11 4 3 -10 12 -10 18 -1 27 17 17 25 15 48 -8z"/>
</g>
</svg>
